<?xml version="1.0" standalone="no"?>
<!DOCTYPE svg PUBLIC "-//W3C//DTD SVG 20010904//EN"
 "http://www.w3.org/TR/2001/REC-SVG-20010904/DTD/svg10.dtd">
<svg version="1.0" xmlns="http://www.w3.org/2000/svg"
 width="218.000000pt" height="189.000000pt" viewBox="0 0 218.000000 189.000000"
 preserveAspectRatio="xMidYMid meet">

<g transform="translate(0.000000,189.000000) scale(0.100000,-0.100000)"
fill="#000000" stroke="none">
<path d="M0 945 l0 -945 1090 0 1090 0 0 945 0 945 -1090 0 -1090 0 0 -945z
m870 814 c0 -8 4 -8 13 -1 6 5 33 10 60 10 35 1 47 -2 47 -14 0 -8 -6 -17 -14
-20 -8 -3 -16 -15 -19 -26 -4 -15 -11 -19 -26 -15 -12 3 -21 1 -21 -4 0 -5 -9
-9 -19 -9 -11 0 -23 -4 -26 -10 -3 -5 -15 -10 -26 -10 -10 0 -19 -4 -19 -10 0
-5 -7 -10 -15 -10 -8 0 -25 -6 -36 -12 -25 -15 -99 -86 -99 -95 0 -3 -11 -21
-25 -39 -14 -18 -25 -37 -25 -42 0 -16 -23 -30 -62 -37 -37 -7 -38 -7 -38 24
0 17 5 31 10 31 6 0 10 11 10 25 0 16 6 25 15 25 8 0 15 9 15 20 0 11 7 23 15
26 8 4 15 13 15 21 0 8 9 17 20 20 11 3 20 14 20 24 0 11 5 19 10 19 22 0 25
2 32 21 4 10 17 19 28 19 11 0 20 5 20 10 0 6 8 10 19 10 10 0 24 7 31 15 7 8
18 15 25 15 7 0 18 7 25 15 15 18 40 20 40 4z m306 -1 c4 -6 10 -5 15 3 7 11
12 12 26 1 10 -6 28 -16 40 -21 11 -6 24 -15 28 -20 3 -6 15 -11 26 -11 10 0
19 -4 19 -10 0 -5 9 -10 20 -10 12 0 24 -9 29 -22 5 -13 11 -22 15 -20 17 6
26 0 26 -18 0 -11 7 -20 15 -20 9 0 19 -8 22 -17 4 -10 12 -22 20 -26 7 -4 13
-17 13 -27 0 -11 7 -20 15 -20 9 0 15 -9 15 -25 0 -14 5 -25 10 -25 6 0 10
-14 10 -31 0 -31 -1 -31 -37 -24 -40 7 -63 21 -63 37 0 5 -11 24 -25 42 -14
18 -25 36 -25 39 0 9 -74 80 -99 95 -11 6 -28 12 -36 12 -8 0 -15 5 -15 10 0
6 -9 10 -19 10 -11 0 -23 5 -26 10 -3 6 -15 10 -26 10 -10 0 -19 4 -19 9 0 5
-9 7 -20 4 -13 -4 -22 1 -27 13 -3 11 -12 23 -20 27 -7 4 -13 14 -13 22 0 17
96 19 106 3z m-216 -142 c0 -8 -4 -18 -10 -21 -5 -3 -10 -15 -10 -26 0 -10 -7
-19 -15 -19 -16 0 -24 -4 -84 -35 -38 -20 -71 -50 -71 -64 0 -5 -9 -13 -21
-16 -11 -4 -18 -9 -15 -13 3 -3 0 -12 -7 -21 -24 -28 -27 -50 -9 -60 9 -6 12
-11 5 -11 -6 0 -15 5 -18 10 -11 18 -27 11 -20 -9 3 -11 1 -22 -5 -26 -5 -3
-10 -16 -10 -29 0 -24 -41 -66 -64 -66 -18 0 -30 35 -19 52 4 7 6 23 5 35 -2
11 2 24 7 28 6 3 11 17 11 31 0 13 5 24 10 24 6 0 10 9 10 20 0 11 7 23 15 26
8 4 15 15 15 26 0 11 8 22 20 25 11 3 20 10 20 16 0 12 65 77 78 77 5 0 15 7
22 15 7 9 19 14 26 11 7 -3 18 2 24 10 17 19 40 18 41 -3 0 -14 2 -13 9 5 11
25 60 32 60 8z m200 -8 c7 -18 9 -19 9 -5 1 21 24 22 41 3 6 -8 17 -13 24 -10
7 3 19 -2 26 -11 7 -8 17 -15 22 -15 13 0 78 -65 78 -77 0 -6 9 -13 20 -16 12
-3 20 -14 20 -25 0 -11 7 -22 15 -26 8 -3 15 -15 15 -26 0 -11 5 -20 10 -20 6
0 10 -11 10 -24 0 -14 5 -28 11 -31 5 -4 9 -17 7 -28 -1 -12 1 -28 5 -35 11
-17 -1 -52 -19 -52 -23 0 -64 42 -64 66 0 13 -5 26 -10 29 -6 4 -8 15 -5 25 3
11 0 20 -10 24 -8 3 -15 12 -15 19 0 8 -7 20 -15 27 -8 7 -13 16 -10 20 3 5
-4 11 -15 15 -11 3 -20 11 -20 16 0 14 -33 44 -71 64 -60 31 -68 35 -84 35 -8
0 -15 9 -15 19 0 11 -4 23 -10 26 -20 12 -10 35 15 35 17 0 29 -7 35 -22z
m-616 -230 c-14 -45 -5 -182 16 -249 36 -119 127 -227 237 -283 50 -25 51 -19
2 12 -88 57 -155 155 -178 260 -6 29 -11 60 -11 68 0 28 17 5 23 -30 6 -40 57
-148 86 -186 l20 -25 -10 45 c-11 47 -4 125 12 150 6 10 9 -7 9 -50 0 -112 60
-204 160 -249 25 -11 55 -21 68 -21 19 0 22 -5 22 -36 l0 -37 -52 6 c-80 8
-174 50 -263 118 -95 73 -176 113 -274 137 -39 9 -71 21 -71 26 0 13 125 -3
187 -25 37 -13 53 -15 50 -6 -45 100 -59 149 -64 211 -6 75 11 186 28 186 6 0
7 -9 3 -22z m997 -35 c21 -105 6 -196 -58 -340 -3 -9 13 -7 50 6 62 22 187 38
187 25 0 -5 -32 -17 -71 -26 -98 -24 -179 -64 -274 -137 -89 -68 -183 -110
-262 -118 l-53 -6 0 37 c0 31 3 36 23 36 35 0 119 44 154 81 47 50 73 114 73
182 0 39 -4 57 -12 58 -8 0 -7 3 2 6 8 3 24 13 35 22 19 15 19 15 3 -4 -14
-17 -15 -28 -6 -71 7 -35 7 -67 0 -100 l-11 -49 20 25 c29 38 80 146 86 186 6
35 23 58 23 30 0 -8 -5 -39 -11 -68 -23 -105 -90 -203 -178 -260 -49 -31 -48
-37 2 -12 110 56 201 164 237 283 21 67 30 204 16 249 -4 13 -3 22 3 22 5 0
15 -26 22 -57z m-228 10 c-13 -2 -33 -2 -45 0 -13 2 -3 4 22 4 25 0 35 -2 23
-4z m-523 -13 c0 -5 -5 -10 -11 -10 -5 0 -7 5 -4 10 3 6 8 10 11 10 2 0 4 -4
4 -10z m185 0 c3 -5 1 -10 -4 -10 -6 0 -11 5 -11 10 0 6 2 10 4 10 3 0 8 -4
11 -10z m93 -101 l-3 -88 50 -4 c44 -3 42 -4 -12 -4 -35 0 -63 4 -63 9 0 4 5
8 10 8 6 0 10 35 10 85 0 50 -4 85 -10 85 -5 0 -10 5 -10 11 0 8 5 7 16 -2 12
-10 15 -30 12 -100z m57 101 c-3 -5 -12 -10 -18 -10 -7 0 -6 4 3 10 19 12 23
12 15 0z m115 6 c0 -2 -8 -10 -17 -17 -16 -13 -17 -12 -4 4 13 16 21 21 21 13z
m-222 -20 c-7 -8 -15 -12 -17 -11 -5 6 10 25 20 25 5 0 4 -6 -3 -14z m240 -6
c-7 -10 -14 -17 -17 -15 -4 4 18 35 25 35 2 0 -1 -9 -8 -20z m-378 -51 c0 -6
-4 -7 -10 -4 -5 3 -10 11 -10 16 0 6 5 7 10 4 6 -3 10 -11 10 -16z m419 -5
c14 -12 -19 -1 -35 12 -18 14 -18 14 6 3 14 -6 27 -13 29 -15z m-75 0 c3 -8 2
-12 -4 -9 -6 3 -10 10 -10 16 0 14 7 11 14 -7z m111 -22 c-3 -3 -11 0 -18 7
-9 10 -8 11 6 5 10 -3 15 -9 12 -12z m-521 -28 c3 -8 2 -12 -4 -9 -6 3 -10 10
-10 16 0 14 7 11 14 -7z m127 -11 c-12 -20 -14 -14 -5 12 4 9 9 14 11 11 3 -2
0 -13 -6 -23z m289 3 c0 -3 -4 -8 -10 -11 -5 -3 -10 -1 -10 4 0 6 5 11 10 11
6 0 10 -2 10 -4z m-42 -26 c-7 -10 -14 -18 -15 -16 -6 6 9 36 18 36 5 0 4 -9
-3 -20z m-247 -33 c-10 -9 -11 -8 -5 6 3 10 9 15 12 12 3 -3 0 -11 -7 -18z
m296 -3 c-3 -3 -12 -4 -19 -1 -8 3 -5 6 6 6 11 1 17 -2 13 -5z m-187 -359 c0
-28 -4 -35 -20 -35 -16 0 -20 7 -20 35 0 28 4 35 20 35 16 0 20 -7 20 -35z
m-465 -302 c4 -15 2 -23 -5 -23 -6 0 -8 5 -5 10 3 6 1 11 -4 11 -26 3 -30 4
-37 12 -4 4 3 7 16 7 20 0 21 2 9 18 -12 15 -11 16 3 2 9 -8 19 -25 23 -37z
m564 0 c-9 -10 -7 -13 10 -13 14 0 20 4 15 12 -4 7 -3 8 4 4 22 -13 12 -26
-19 -26 -29 0 -30 -2 -18 -17 13 -16 12 -17 -3 -5 -9 8 -23 10 -29 6 -8 -4 -9
-3 -5 4 5 9 -17 12 -83 12 -54 0 -91 4 -91 10 0 6 41 10 103 10 57 0 107 3
110 7 4 3 -1 16 -10 27 -18 21 -18 21 4 2 18 -15 20 -22 12 -33z m185 15 c14
-27 36 -35 36 -12 0 9 3 15 6 11 10 -9 -6 -47 -21 -47 -7 0 -15 10 -18 21 -4
15 -11 20 -23 15 -14 -5 -15 -4 -5 8 7 8 9 21 5 28 -4 7 -4 10 1 6 4 -4 13
-17 19 -30z m126 28 c0 -2 -7 -7 -16 -10 -8 -3 -12 -2 -9 4 6 10 25 14 25 6z
m117 -11 c0 -8 -4 -12 -9 -9 -4 3 -8 9 -8 15 0 5 4 9 8 9 5 0 9 -7 9 -15z m94
-2 c13 -16 12 -17 -3 -4 -10 7 -18 15 -18 17 0 8 8 3 21 -13z m264 -1 c11 -9
18 -16 16 -15 -5 3 -30 -29 -31 -39 0 -17 30 -7 31 10 1 16 2 16 6 0 6 -23 55
-24 73 -3 11 13 14 13 26 -2 7 -10 14 -21 14 -25 0 -12 -119 -9 -142 3 -28 15
-35 3 -12 -23 l19 -23 -23 20 -23 19 5 -29 c4 -17 3 -23 0 -15 -4 8 -11 23
-16 34 -6 11 -6 16 0 13 5 -4 14 5 20 18 7 14 16 25 21 25 5 0 8 8 7 18 -3 13
-12 17 -37 15 -31 -2 -32 -1 -9 7 35 11 33 12 55 -8z m52 -14 c-3 -7 -5 -2 -5
12 0 14 2 19 5 13 2 -7 2 -19 0 -25z m-1904 -110 c8 -5 6 -8 -5 -8 -16 0 -18
9 -16 73 l2 72 3 -65 c2 -35 9 -68 16 -72z m175 107 c-3 -3 -9 2 -12 12 -6 14
-5 15 5 6 7 -7 10 -15 7 -18z m109 11 c-14 -11 -15 -15 -5 -19 7 -3 1 -5 -14
-4 -16 1 -28 2 -28 4 0 3 54 32 60 32 3 0 -3 -6 -13 -13z m110 -16 c11 0 27
-8 34 -17 13 -16 12 -17 -2 -5 -14 10 -18 10 -23 -4 -5 -13 -9 -15 -18 -6 -7
7 -19 12 -27 11 -11 0 -12 -2 -3 -6 6 -2 12 -12 12 -20 0 -9 6 -13 14 -10 8 3
17 1 19 -6 3 -9 8 -9 18 1 16 15 29 16 29 2 0 -6 -3 -9 -7 -8 -5 1 -18 -3 -30
-10 -18 -10 -23 -23 -26 -70 l-4 -57 1 63 c1 43 -3 62 -11 62 -7 0 -13 -5 -13
-11 0 -5 -5 -7 -12 -3 -8 5 -6 11 5 19 14 10 14 15 3 30 -8 11 -18 15 -27 11
-8 -4 -6 -1 4 7 18 15 18 16 0 26 -17 11 -17 11 2 9 13 -2 19 2 17 12 -2 11 1
11 11 -2 8 -10 23 -18 34 -18z m377 22 c3 -5 -1 -9 -9 -9 -8 0 -12 4 -9 9 3 4
7 8 9 8 2 0 6 -4 9 -8z m906 -12 c-7 -5 -15 -16 -16 -25 -5 -37 -14 -49 -26
-37 -7 7 -39 12 -73 12 -49 0 -62 -4 -73 -20 -7 -11 -20 -20 -30 -19 -14 0
-13 2 4 9 23 9 38 36 24 45 -4 3 -11 0 -13 -5 -4 -7 -5 -6 -3 1 1 6 5 10 10 9
5 -1 13 4 17 12 7 10 9 10 9 1 0 -23 20 -14 21 10 l2 22 4 -22 c4 -22 32 -27
49 -10 4 4 12 0 18 -9 9 -12 17 -13 36 -5 14 5 21 10 16 10 -5 1 -1 10 9 21
10 11 21 18 24 15 3 -4 -1 -10 -9 -15z m-1113 -162 c-2 -35 -3 -9 -3 57 0 66
1 94 3 63 2 -32 2 -86 0 -120z m1436 131 c-8 -8 -11 -6 -10 7 1 11 -4 18 -11
16 -8 -1 -11 2 -7 9 5 8 12 6 23 -5 12 -12 13 -19 5 -27z m-1866 -1 c-3 -7 -5
-2 -5 12 0 14 2 19 5 13 2 -7 2 -19 0 -25z m511 15 c-10 -2 -26 -2 -35 0 -10
3 -2 5 17 5 19 0 27 -2 18 -5z m110 -35 l-1 -43 -4 38 c-4 31 -8 37 -28 37
-20 0 -24 -6 -28 -37 l-4 -38 -1 43 c-2 42 -2 42 33 42 35 0 35 0 33 -42z
m598 29 c18 6 18 6 2 -10 -23 -23 -33 -21 -35 5 -2 15 1 18 6 10 5 -8 15 -10
27 -5z m451 -9 c-3 -8 -6 -5 -6 6 -1 11 2 17 5 13 3 -3 4 -12 1 -19z m-119
-33 c-13 -12 -25 -20 -28 -18 -3 2 5 12 18 21 19 15 20 20 10 32 -11 12 -10
12 5 0 17 -13 17 -14 -5 -35z m-473 15 c-3 -5 1 -10 10 -10 10 0 13 5 9 12 -4
7 -3 8 4 4 17 -10 15 -19 -9 -34 -12 -8 -18 -9 -14 -3 4 7 -5 11 -24 11 -38 0
-41 17 -3 23 15 2 28 5 30 6 2 0 0 -3 -3 -9z m-1075 -20 c0 -18 -6 -20 -62
-18 l-63 2 58 3 c41 3 57 8 57 18 0 8 2 15 5 15 3 0 5 -9 5 -20z m340 5 c-8
-10 -13 -43 -13 -83 0 -63 -1 -67 -22 -67 -14 0 -21 5 -18 13 3 6 11 12 19 12
8 0 14 7 14 15 0 8 -7 15 -15 15 -8 0 -15 5 -15 10 0 6 7 10 15 10 8 0 15 7
15 15 0 8 -7 15 -15 15 -21 0 -19 8 13 35 31 28 40 32 22 10z m810 -10 c0 -10
-9 -15 -27 -14 -24 2 -25 2 -5 6 12 2 22 9 22 14 0 5 2 9 5 9 3 0 5 -7 5 -15z
m115 -6 c11 -16 1 -19 -13 -3 -7 8 -8 14 -3 14 5 0 13 -5 16 -11z m-903 -78
c-2 -34 -7 -61 -11 -61 -4 0 -4 27 -1 60 3 36 2 65 -5 72 -8 9 -6 9 5 1 11 -8
14 -27 12 -72z m841 72 c-7 -2 -19 -2 -25 0 -7 3 -2 5 12 5 14 0 19 -2 13 -5z
m257 -8 c-7 -8 -20 -15 -29 -15 -11 0 -8 5 9 14 33 19 35 19 20 1z m394 9 c9
-3 16 -11 16 -16 0 -6 -6 -5 -15 2 -8 6 -20 8 -26 4 -8 -4 -9 -3 -5 4 8 14 9
14 30 6z m-1865 -44 c15 0 33 6 41 13 12 10 12 9 1 -5 -8 -11 -27 -18 -47 -18
-29 0 -34 3 -33 23 1 16 2 18 6 5 3 -12 14 -18 32 -18z m16 20 c3 -5 1 -10 -4
-10 -6 0 -11 5 -11 10 0 6 2 10 4 10 3 0 8 -4 11 -10z m503 3 c-10 -2 -26 -2
-35 0 -10 3 -2 5 17 5 19 0 27 -2 18 -5z m112 -35 c-3 -65 -1 -71 16 -64 8 3
12 2 9 -4 -8 -13 -35 -13 -35 0 0 6 -32 10 -75 10 -49 0 -75 4 -75 11 0 8 15
10 48 5 l47 -6 -3 45 -4 45 37 0 37 0 -2 -42z m640 11 c0 -6 -7 -3 -16 5 -8 9
-20 13 -26 10 -7 -4 -8 -2 -4 4 8 14 46 -2 46 -19z m229 28 c-2 -1 -13 -9 -24
-17 -19 -14 -19 -14 -6 3 7 9 18 17 24 17 6 0 8 -1 6 -3z m-383 -18 c5 -8 9
-7 14 1 5 8 10 -13 12 -48 1 -33 0 -58 -4 -55 -5 2 -9 23 -9 46 l-2 42 -7 -40
-8 -40 1 45 c1 33 -2 45 -13 45 -11 0 -14 -10 -12 -42 3 -36 1 -42 -12 -37
-18 7 -22 24 -6 24 17 0 11 37 -7 45 -16 7 -15 9 7 15 36 11 38 11 46 -1z
m453 -2 c16 -20 3 -27 -50 -27 -46 0 -48 -1 -51 -32 -2 -17 -9 -33 -16 -34 -7
-1 -8 0 -2 3 5 2 10 20 10 38 l0 34 58 3 c52 3 55 4 32 15 -16 8 -19 12 -9 12
9 1 22 -5 28 -12z m178 -9 c-3 -8 -6 -5 -6 6 -1 11 2 17 5 13 3 -3 4 -12 1
-19z m53 -27 c0 -27 5 -52 10 -54 6 -3 5 -4 -2 -3 -14 3 -29 106 -16 106 5 0
8 -22 8 -49z m-1720 18 c0 -5 -4 -9 -8 -9 -5 0 -9 7 -9 15 0 8 4 12 9 9 4 -3
8 -9 8 -15z m824 6 c-4 -11 -21 -15 -55 -15 -44 0 -49 -2 -49 -22 0 -12 -3
-19 -6 -15 -4 3 -4 17 0 31 5 22 12 25 59 29 28 2 53 4 54 5 1 1 0 -5 -3 -13z
m38 -44 c-2 -23 -8 -41 -12 -41 -4 0 -4 18 0 39 4 25 3 45 -4 52 -9 10 -8 11
4 2 11 -8 14 -24 12 -52z m-1022 43 c-36 -8 -100 -9 -100 -2 0 5 26 7 58 7 31
-1 50 -3 42 -5z m307 -61 c-2 -16 -4 -5 -4 22 0 28 2 40 4 28 2 -13 2 -35 0
-50z m1000 20 c-3 -10 -5 -2 -5 17 0 19 2 27 5 18 2 -10 2 -26 0 -35z m193 33
c8 -2 -11 -4 -42 -5 -32 0 -58 2 -58 7 0 7 64 6 100 -2z m357 -8 c-3 -8 -6 -5
-6 6 -1 11 2 17 5 13 3 -3 4 -12 1 -19z m-1634 -2 c7 4 4 -1 -5 -11 -20 -22
-32 -16 -21 11 4 11 8 13 11 6 2 -7 9 -9 15 -6z m-176 -48 c-2 -13 -4 -5 -4
17 -1 22 1 32 4 23 2 -10 2 -28 0 -40z m1718 32 c3 -5 1 -10 -4 -10 -6 0 -11
5 -11 10 0 6 2 10 4 10 3 0 8 -4 11 -10z m178 -5 c-3 -9 -8 -14 -10 -11 -3 3
-2 9 2 15 9 16 15 13 8 -4z m-113 -20 c-13 -14 -30 -23 -36 -21 -7 3 -15 0
-18 -7 -3 -8 -5 -8 -5 -1 -1 6 9 19 21 30 19 15 20 16 9 2 -19 -25 2 -23 24 2
10 11 20 20 23 20 3 0 -5 -11 -18 -25z m-335 5 c-27 -12 -35 -12 -35 0 0 6 12
10 28 9 24 0 25 -1 7 -9z m-525 -16 c-35 -7 -98 -9 -94 -2 3 5 29 7 57 7 29
-1 45 -3 37 -5z m765 -14 c-3 -5 -12 -10 -18 -10 -7 0 -6 4 3 10 19 12 23 12
15 0z m222 4 c-3 -3 -12 -4 -19 -1 -8 3 -5 6 6 6 11 1 17 -2 13 -5z m-1904
-99 c-3 -9 -8 -14 -10 -11 -3 3 -2 9 2 15 9 16 15 13 8 -4z m127 -7 c10 -21
10 -21 -3 -6 -8 10 -18 14 -22 10 -5 -4 -5 -1 -1 6 10 17 14 15 26 -10z m116
-25 c1 -39 -1 -44 -12 -29 -6 9 -11 23 -10 29 3 13 17 47 20 47 0 0 1 -21 2
-47z m179 36 c11 -16 1 -19 -13 -3 -7 8 -8 14 -3 14 5 0 13 -5 16 -11z m117
-29 c-4 -41 4 -50 26 -28 9 9 12 9 12 -2 1 -9 7 -4 15 10 8 14 14 19 15 12 0
-7 5 -10 10 -7 8 5 7 12 -2 23 -11 13 -10 15 5 9 18 -7 24 8 7 16 -6 3 -5 4 2
3 8 -2 12 -15 10 -32 -2 -22 0 -26 8 -14 12 18 12 3 0 -25 -8 -18 -9 -18 -9
-2 -1 11 -6 17 -13 14 -7 -2 -12 -9 -11 -15 1 -5 -16 -9 -40 -8 l-42 1 -3 43
c-2 23 1 42 5 42 5 0 7 -18 5 -40z m158 25 c0 -8 5 -15 11 -15 6 0 8 8 5 18
-4 10 1 7 13 -7 l19 -25 5 25 c3 19 5 18 6 -9 1 -24 -2 -31 -11 -25 -27 16
-40 12 -36 -11 4 -17 -1 -22 -18 -24 -13 -1 -26 3 -29 8 -4 6 1 7 11 3 14 -5
16 0 12 35 -2 23 0 42 4 42 5 0 8 -7 8 -15z m167 -2 c0 -9 -4 -10 -13 -2 -19
16 -36 1 -34 -29 3 -41 1 -45 -15 -32 -18 15 -20 51 -3 68 16 16 65 12 65 -5z
m47 1 c3 -8 3 -27 0 -41 -5 -20 -4 -24 6 -18 9 5 11 4 6 -4 -12 -19 -24 -3
-28 39 -4 40 5 53 16 24z m68 -24 c-4 -42 -16 -58 -28 -39 -4 8 -3 9 5 5 11
-7 9 16 -5 62 -2 6 4 12 14 12 14 0 17 -7 14 -40z m74 22 c1 -7 0 -8 -3 -2
-11 22 -22 8 -11 -15 8 -19 14 -22 20 -13 10 17 9 -1 -2 -27 -7 -17 -9 -17 -9
-2 -1 9 -6 17 -13 17 -6 0 -8 3 -5 7 4 3 2 12 -4 19 -12 15 -3 37 14 31 6 -2
12 -9 13 -15z m89 7 c-4 -6 -13 -8 -21 -5 -11 4 -13 -1 -9 -22 4 -22 4 -24 -4
-7 l-10 20 -1 -20 c-1 -11 -4 -15 -6 -8 -8 20 15 53 37 53 12 0 17 -4 14 -11z
m26 -12 c-10 -9 -11 -8 -5 6 3 10 9 15 12 12 3 -3 0 -11 -7 -18z m39 -22 c0
-25 -3 -45 -7 -45 -5 0 -8 20 -8 45 0 25 3 45 8 45 4 0 7 -20 7 -45z m33 38
c-7 -2 -13 -12 -13 -20 0 -13 2 -14 18 -2 15 13 16 12 3 -3 -11 -15 -11 -19 3
-24 24 -9 19 -31 -6 -30 -18 1 -23 7 -25 31 -2 39 3 55 19 54 10 0 10 -2 1 -6z
m107 -15 c11 -23 11 -23 -6 -3 -16 20 -16 20 -11 -4 4 -17 3 -21 -5 -13 -10
10 -5 42 6 42 3 0 10 -10 16 -22z m85 13 c3 -5 2 -12 -3 -15 -5 -3 -9 1 -9 9
0 17 3 19 12 6z m45 -6 c0 -8 -4 -15 -10 -15 -5 0 -7 7 -4 15 4 8 8 15 10 15
2 0 4 -7 4 -15z m152 -22 l-6 -28 -6 25 c-7 27 -3 43 9 35 5 -2 6 -17 3 -32z
m118 26 c0 -5 -4 -7 -10 -4 -5 3 -10 1 -10 -6 0 -7 -3 -10 -6 -6 -8 7 4 27 17
27 5 0 9 -5 9 -11z m70 -34 c0 -22 -22 -50 -32 -40 -3 3 -3 18 0 33 l6 27 7
-25 c7 -23 8 -23 6 5 -1 19 -7 29 -15 27 -8 -1 -11 2 -7 8 10 17 35 -8 35 -35z
m-1613 13 c-3 -8 -6 -5 -6 6 -1 11 2 17 5 13 3 -3 4 -12 1 -19z m-266 -10 c11
-21 11 -22 -4 -9 -10 7 -17 17 -17 22 0 15 9 10 21 -13z m43 6 c3 -8 2 -12 -4
-9 -6 3 -10 10 -10 16 0 14 7 11 14 -7z m427 -1 c13 -16 12 -17 -3 -4 -17 13
-22 21 -14 21 2 0 10 -8 17 -17z m-361 1 c0 -8 -19 -13 -24 -6 -3 5 1 9 9 9 8
0 15 -2 15 -3z m99 -34 c12 -13 13 -12 8 9 -4 17 -3 21 5 13 6 -6 7 -19 4 -29
-7 -17 -8 -17 -22 1 -14 20 -14 20 -28 0 -8 -10 -17 -16 -21 -13 -3 4 1 13 9
21 11 12 12 18 3 29 -9 10 -7 10 8 -1 11 -8 26 -21 34 -30z m1480 -2 c7 1 10
-2 6 -8 -10 -17 -35 8 -34 34 1 19 2 18 8 -4 4 -14 13 -24 20 -22z m-612 18
c-3 -7 -1 -18 5 -24 8 -8 5 -11 -9 -9 -18 1 -19 4 -10 24 11 25 23 32 14 9z
m373 -11 c0 -25 -19 -26 -30 -3 -11 23 -11 23 6 3 16 -20 16 -20 11 3 -3 12
-1 20 4 16 5 -3 9 -11 9 -19z m-1464 -14 c-4 -6 -13 -11 -19 -11 -8 0 -7 3 2
9 8 5 10 14 6 22 -6 11 -5 11 5 2 7 -6 9 -16 6 -22z m52 4 c-3 -3 -9 2 -12 12
-6 14 -5 15 5 6 7 -7 10 -15 7 -18z m51 -3 c0 -11 -2 -13 -6 -4 -4 10 -8 10
-21 0 -14 -12 -14 -11 -2 9 15 24 30 21 29 -5z m178 6 c-3 -8 -6 -5 -6 6 -1
11 2 17 5 13 3 -3 4 -12 1 -19z m647 -8 c-6 -6 -10 -3 -10 10 0 13 4 16 10 10
7 -7 7 -13 0 -20z m306 16 c0 -8 -4 -17 -8 -20 -4 -2 -8 4 -8 15 0 10 4 19 8
19 4 0 8 -6 8 -14z m23 -6 c-3 -11 -7 -20 -9 -20 -2 0 -4 9 -4 20 0 11 4 20 9
20 5 0 7 -9 4 -20z m-795 -3 c8 -10 6 -13 -7 -13 -11 0 -17 6 -14 13 3 7 6 13
8 13 1 0 7 -6 13 -13z m376 -16 c-2 -3 -12 3 -22 13 -16 17 -16 18 5 5 12 -7
20 -15 17 -18z m576 20 c0 -6 -4 -13 -10 -16 -5 -3 -10 1 -10 9 0 9 5 16 10
16 6 0 10 -4 10 -9z m74 -7 c3 -8 2 -12 -4 -9 -6 3 -10 10 -10 16 0 14 7 11
14 -7z m-1074 -8 c-7 -7 -13 -7 -20 0 -6 6 -3 10 10 10 13 0 16 -4 10 -10z
m790 8 c0 -8 -19 -13 -24 -6 -3 5 1 9 9 9 8 0 15 -2 15 -3z m570 0 c0 -8 -19
-13 -24 -6 -3 5 1 9 9 9 8 0 15 -2 15 -3z"/>
<path d="M870 1730 c0 -6 7 -10 15 -10 8 0 15 2 15 4 0 2 -7 6 -15 10 -8 3
-15 1 -15 -4z"/>
<path d="M828 1703 c7 -3 16 -2 19 1 4 3 -2 6 -13 5 -11 0 -14 -3 -6 -6z"/>
<path d="M1170 1730 c-13 -8 -12 -10 3 -10 9 0 17 5 17 10 0 12 -1 12 -20 0z"/>
<path d="M1218 1703 c7 -3 16 -2 19 1 4 3 -2 6 -13 5 -11 0 -14 -3 -6 -6z"/>
<path d="M2025 450 c-3 -5 3 -10 15 -10 12 0 18 5 15 10 -3 6 -10 10 -15 10
-5 0 -12 -4 -15 -10z"/>
<path d="M465 470 c3 -5 8 -10 11 -10 2 0 4 5 4 10 0 6 -5 10 -11 10 -5 0 -7
-4 -4 -10z"/>
<path d="M780 355 c0 -31 3 -35 25 -35 22 0 25 4 25 35 0 31 -3 35 -25 35 -22
0 -25 -4 -25 -35z"/>
<path d="M987 183 c-9 -9 -9 -51 1 -56 4 -3 7 10 7 29 0 19 0 34 -1 34 0 0 -4
-3 -7 -7z"/>
<path d="M1410 136 c0 -9 5 -16 10 -16 6 0 10 4 10 9 0 6 -4 13 -10 16 -5 3
-10 -1 -10 -9z"/>
</g>
</svg>
